<svg xmlns="http://www.w3.org/2000/svg" width="45.186" height="36.03" viewBox="0 0 45.186 36.03"><defs><style>.a{fill:#0164ae;}</style></defs><path class="a" d="M36.15,13.591l-.579,1.01a.873.873,0,0,1-1.066.381,7.8,7.8,0,0,1-2.267-1.313.877.877,0,0,1-.2-1.109l.579-1.01A6.1,6.1,0,0,1,31.5,9.616H30.332a.872.872,0,0,1-.861-.727,7.955,7.955,0,0,1,0-2.62.878.878,0,0,1,.861-.734H31.5A6.1,6.1,0,0,1,32.62,3.6l-.579-1.01a.868.868,0,0,1,.2-1.109A7.9,7.9,0,0,1,34.505.168a.873.873,0,0,1,1.066.381l.579,1.01a6.274,6.274,0,0,1,2.238,0l.579-1.01A.873.873,0,0,1,40.034.168,7.8,7.8,0,0,1,42.3,1.481a.877.877,0,0,1,.2,1.109L41.919,3.6a6.1,6.1,0,0,1,1.123,1.935h1.165a.872.872,0,0,1,.861.727,7.955,7.955,0,0,1,0,2.62.878.878,0,0,1-.861.734H43.042a6.1,6.1,0,0,1-1.123,1.935l.579,1.01a.868.868,0,0,1-.2,1.109,7.9,7.9,0,0,1-2.267,1.313.873.873,0,0,1-1.066-.381l-.579-1.01A6.274,6.274,0,0,1,36.15,13.591Zm-.741-4.152a2.638,2.638,0,0,0,3.728-3.728A2.638,2.638,0,0,0,35.409,9.439ZM27.268,20.306l2.38,1.186a1.7,1.7,0,0,1,.741,2.055,16.669,16.669,0,0,1-3.008,4.646,1.688,1.688,0,0,1-2.139.374l-2.055-1.186a12.129,12.129,0,0,1-3.876,2.238v2.372a1.69,1.69,0,0,1-1.391,1.666,15.879,15.879,0,0,1-5.359,0,1.7,1.7,0,0,1-1.412-1.666V29.619a12.262,12.262,0,0,1-3.876-2.238L5.216,28.56a1.689,1.689,0,0,1-2.139-.374A16.644,16.644,0,0,1,.1,23.547a1.7,1.7,0,0,1,.741-2.055L3.19,20.306a12.232,12.232,0,0,1,0-4.477L.839,14.636A1.684,1.684,0,0,1,.1,12.588a16.578,16.578,0,0,1,2.98-4.646,1.688,1.688,0,0,1,2.139-.374L7.271,8.754a12.129,12.129,0,0,1,3.876-2.238V4.136a1.682,1.682,0,0,1,1.384-1.659A16.1,16.1,0,0,1,17.9,2.47,1.7,1.7,0,0,1,19.31,4.136V6.509a12.262,12.262,0,0,1,3.876,2.238l2.055-1.186a1.689,1.689,0,0,1,2.139.374,16.556,16.556,0,0,1,2.973,4.646,1.688,1.688,0,0,1-.706,2.055l-2.38,1.186A12.271,12.271,0,0,1,27.268,20.306Zm-8.3,1.49c4.18-5.437-2.026-11.643-7.463-7.463C7.321,19.769,13.527,25.976,18.964,21.8ZM36.15,34.7l-.579,1.01a.873.873,0,0,1-1.066.381,7.8,7.8,0,0,1-2.267-1.313.877.877,0,0,1-.2-1.109l.579-1.01A6.1,6.1,0,0,1,31.5,30.721H30.332a.872.872,0,0,1-.861-.727,7.955,7.955,0,0,1,0-2.62.878.878,0,0,1,.861-.734H31.5A6.1,6.1,0,0,1,32.62,24.7l-.579-1.01a.868.868,0,0,1,.2-1.109,7.9,7.9,0,0,1,2.267-1.313.873.873,0,0,1,1.066.381l.579,1.01a6.274,6.274,0,0,1,2.238,0l.579-1.01a.873.873,0,0,1,1.066-.381A7.8,7.8,0,0,1,42.3,22.586a.877.877,0,0,1,.2,1.109l-.579,1.01a6.1,6.1,0,0,1,1.123,1.935h1.165a.872.872,0,0,1,.861.727,7.955,7.955,0,0,1,0,2.62.878.878,0,0,1-.861.734H43.042a6.1,6.1,0,0,1-1.123,1.935l.579,1.01a.868.868,0,0,1-.2,1.109,7.9,7.9,0,0,1-2.267,1.313.873.873,0,0,1-1.066-.381l-.579-1.01A6.274,6.274,0,0,1,36.15,34.7Zm-.741-4.159a2.638,2.638,0,0,0,3.728-3.728A2.638,2.638,0,0,0,35.409,30.537Z" transform="translate(0.009 -0.112)"/></svg>