<svg xmlns="http://www.w3.org/2000/svg" width="40.759" height="32.607" viewBox="0 0 40.759 32.607"><defs><style>.a{fill:#08bc14;}</style></defs><path class="a" d="M16.3,18.341a4.076,4.076,0,1,0,4.076-4.076A4.076,4.076,0,0,0,16.3,18.341Zm14.266,0a4.076,4.076,0,1,0,4.076-4.076A4.076,4.076,0,0,0,30.569,18.341ZM6.114,22.417a4.076,4.076,0,1,0-4.076-4.076A4.076,4.076,0,0,0,6.114,22.417Zm30.569,2.038H32.607a4.076,4.076,0,0,0-4.076,4.076v2.038a2.038,2.038,0,0,0,2.038,2.038h8.152a2.038,2.038,0,0,0,2.038-2.038V28.531A4.076,4.076,0,0,0,36.683,24.455Zm-14.266,0H18.341a4.076,4.076,0,0,0-4.076,4.076v2.038A2.038,2.038,0,0,0,16.3,32.607h8.152a2.038,2.038,0,0,0,2.038-2.038V28.531A4.076,4.076,0,0,0,22.417,24.455Zm-14.266,0H4.076A4.076,4.076,0,0,0,0,28.531v2.038a2.038,2.038,0,0,0,2.038,2.038H10.19a2.038,2.038,0,0,0,2.038-2.038V28.531A4.076,4.076,0,0,0,8.152,24.455ZM6.114,4.076H34.645v8.152a6.067,6.067,0,0,1,4.076,1.59V3.158A3.112,3.112,0,0,0,35.664,0H5.095A3.112,3.112,0,0,0,2.038,3.158v10.66a6.068,6.068,0,0,1,4.076-1.59Z"/></svg>