<svg xmlns="http://www.w3.org/2000/svg" width="40" height="32" viewBox="0 0 40 32"><defs><style>.a{fill:#ff4b10;}</style></defs><path class="a" d="M13,22a1.43,1.43,0,0,0-.441.068A8.245,8.245,0,0,1,10,22.5a8.252,8.252,0,0,1-2.559-.432A1.426,1.426,0,0,0,7,22a7,7,0,0,0-7,7.039A2.992,2.992,0,0,0,3,32H17a2.992,2.992,0,0,0,3-2.961A7,7,0,0,0,13,22Zm-3-2a6,6,0,1,0-6-6A6,6,0,0,0,10,20ZM37,0H13a3.054,3.054,0,0,0-3,3.1V6a7.909,7.909,0,0,1,4,1.112V4H36V22H32V18H24v4H19.233a7.966,7.966,0,0,1,2.481,4H37a3.054,3.054,0,0,0,3-3.1V3.1A3.054,3.054,0,0,0,37,0Z" transform="translate(0.002)"/></svg>