<?xml version="1.0" encoding="UTF-8"?>
<svg version="1.1" xmlns="http://www.w3.org/2000/svg" width="374" height="264">
<path d="M0 0 C18.22824837 8.09761506 33.03271417 39.53620815 40.06640625 56.91796875 C50.31547247 84.14087029 50.84147472 113.22574294 48.06640625 141.91796875 C48.61167969 141.23992187 49.15695313 140.561875 49.71875 139.86328125 C54.98339591 133.36571826 60.37738596 127.05015547 66.06640625 120.91796875 C66.65421875 120.26441406 67.24203125 119.61085938 67.84765625 118.9375 C98.65257067 86.17350111 143.97609528 76.37065019 187.06640625 74.91796875 C188.11822668 112.52459463 179.24194964 148.97831499 154.06640625 177.91796875 C153.39222656 178.70171875 152.71804688 179.48546875 152.0234375 180.29296875 C141.9945282 191.69194763 131.46988341 202.13486884 119.06640625 210.91796875 C118.22867676 211.51424072 118.22867676 211.51424072 117.37402344 212.12255859 C86.76175396 233.69700262 52.19965106 248.49252841 16.75390625 260.10546875 C15.58577393 260.49234863 14.4176416 260.87922852 13.21411133 261.27783203 C2.31059228 264.74920877 -5.26566784 263.63830871 -16.24609375 260.91796875 C-17.52556885 260.60327637 -18.80504395 260.28858398 -20.12329102 259.96435547 C-40.67321211 254.84773746 -60.53871805 248.45002454 -79.93359375 239.91796875 C-80.69462402 239.58829102 -81.4556543 239.25861328 -82.23974609 238.91894531 C-98.29290789 231.91767705 -113.30869234 222.93810959 -126.93359375 211.91796875 C-127.48466797 211.47372559 -128.03574219 211.02948242 -128.60351562 210.57177734 C-141.70513845 199.92762168 -152.97007788 188.31465458 -161.93359375 173.91796875 C-162.30581055 173.32177734 -162.67802734 172.72558594 -163.06152344 172.11132812 C-180.30479132 144.03405476 -188.37776798 110.81304846 -186.93359375 77.91796875 C-143.18648433 76.98717919 -104.98911778 90.67297983 -72.93359375 120.91796875 C-65.09319366 128.63575996 -58.09639628 136.79478675 -51.93359375 145.91796875 C-52.00215576 145.3254834 -52.07071777 144.73299805 -52.14135742 144.12255859 C-54.395596 122.47621748 -54.90153746 98.96927704 -48.93359375 77.91796875 C-48.71928711 77.14404785 -48.50498047 76.37012695 -48.28417969 75.57275391 C-45.09193229 64.37200814 -40.47646853 54.13367738 -34.93359375 43.91796875 C-34.61132812 43.30969238 -34.2890625 42.70141602 -33.95703125 42.07470703 C-26.21620613 27.50165975 -15.82590007 15.21947756 -4.93359375 2.91796875 C-4.14275391 1.94730469 -4.14275391 1.94730469 -3.3359375 0.95703125 C-1.93359375 -0.08203125 -1.93359375 -0.08203125 0 0 Z " fill="#FBC902" transform="translate(186.93359375,0.08203125)"/>
</svg>
