<?xml version="1.0" encoding="UTF-8"?>
<svg version="1.1" xmlns="http://www.w3.org/2000/svg" width="1436" height="526">
<path d="M0 0 C4.70833361 1.41250008 7.43143777 4.11512104 10.625 7.6875 C11.14425049 8.26201904 11.66350098 8.83653809 12.19848633 9.4284668 C40.69500535 41.52863963 52.61082224 80.43029687 51 123 C50.54594443 129.68931016 49.80837125 136.34537236 49 143 C49.76441406 142.01902344 50.52882812 141.03804687 51.31640625 140.02734375 C78.29022159 105.8511184 114.01454277 82.34753174 158 77 C179.4794801 74.78587066 179.4794801 74.78587066 189 75 C189.87820296 116.27553917 178.14268399 155.01809805 149.38696289 185.45361328 C148.38791817 186.49571889 147.386135 187.5352076 146.38134766 188.57177734 C145.15112328 189.84374846 143.93943172 191.13358503 142.73046875 192.42578125 C110.20565955 226.39881943 62.57427618 245.31757475 19 260 C17.85321777 260.38833008 16.70643555 260.77666016 15.52490234 261.17675781 C5.1388884 264.55521558 -2.12291565 264.03469588 -12.625 261.5625 C-13.75800537 261.29663086 -14.89101074 261.03076172 -16.05834961 260.75683594 C-62.38605424 249.56849729 -104.82606427 231.62685763 -140 199 C-140.90492188 198.17628906 -140.90492188 198.17628906 -141.828125 197.3359375 C-151.25404603 188.39452643 -158.61056214 177.22505016 -165 166 C-165.58394531 164.98164063 -166.16789062 163.96328125 -166.76953125 162.9140625 C-179.0861713 139.94895035 -185.32742282 112.87819401 -185.0625 86.875 C-185.05798828 86.01390625 -185.05347656 85.1528125 -185.04882812 84.265625 C-185.03722494 82.17705215 -185.0192984 80.08851593 -185 78 C-142.79367201 77.03833683 -104.90773574 89.57046031 -74 119 C-73.19127441 119.76787842 -73.19127441 119.76787842 -72.36621094 120.55126953 C-64.07115191 128.47812242 -56.71061491 136.6917277 -50 146 C-50.2165625 144.13021484 -50.2165625 144.13021484 -50.4375 142.22265625 C-53.9846939 110.30422285 -50.95879724 80.2797509 -37 51 C-36.53037842 50.00709961 -36.53037842 50.00709961 -36.05126953 48.99414062 C-27.26560917 30.74377998 -14.48835252 14.10524704 0 0 Z " fill="#FCC902" transform="translate(185,0)"/>
<path d="M0 0 C7.59 0 15.18 0 23 0 C23 24.42 23 48.84 23 74 C54.02 74 85.04 74 117 74 C117 49.58 117 25.16 117 0 C124.26 0 131.52 0 139 0 C139 63.69 139 127.38 139 193 C131.74 193 124.48 193 117 193 C117 160.99 117 128.98 117 96 C85.98 96 54.96 96 23 96 C23 128.01 23 160.02 23 193 C15.41 193 7.82 193 0 193 C0 129.31 0 65.62 0 0 Z " fill="#FDFDFD" transform="translate(1110,66)"/>
<path d="M0 0 C7.26 0 14.52 0 22 0 C22 24.42 22 48.84 22 74 C53.02 74 84.04 74 116 74 C116 49.58 116 25.16 116 0 C123.59 0 131.18 0 139 0 C139 63.69 139 127.38 139 193 C131.41 193 123.82 193 116 193 C116 160.99 116 128.98 116 96 C84.98 96 53.96 96 22 96 C22 128.01 22 160.02 22 193 C14.74 193 7.48 193 0 193 C0 129.31 0 65.62 0 0 Z " fill="#FDFDFD" transform="translate(563,66)"/>
<path d="M0 0 C7.26 0 14.52 0 22 0 C22.495 40.59 22.495 40.59 23 82 C33.70271676 70.60152137 33.70271676 70.60152137 43.66015625 58.80859375 C46.48517684 55.4176258 49.47500419 52.21208216 52.5 49 C56.32209449 44.9412501 60.0143763 40.85702963 63.5 36.5 C67.49856041 31.50179949 71.80172047 26.86338473 76.18774414 22.20898438 C80.31977118 17.79921997 84.16660354 13.25322809 87.90234375 8.5 C88.59457031 7.675 89.28679687 6.85 90 6 C90.36254883 5.46165527 90.72509766 4.92331055 91.09863281 4.36865234 C93.47149045 1.3148799 95.12741667 0.13784708 99.01049805 -0.47558594 C102.65002017 -0.59093998 106.23680134 -0.52280182 109.875 -0.375 C111.13570312 -0.34792969 112.39640625 -0.32085937 113.6953125 -0.29296875 C116.79863083 -0.22243879 119.89843004 -0.12391029 123 0 C119.02397291 5.53028396 114.76690252 10.57974616 110.0625 15.5 C108.81942059 16.81556406 107.57722182 18.13196082 106.3359375 19.44921875 C105.75295898 20.06716309 105.16998047 20.68510742 104.56933594 21.32177734 C102.19267201 23.86334359 99.90701583 26.4769917 97.63671875 29.11328125 C95.62126228 31.43658787 93.56151538 33.71748465 91.5 36 C88.81016569 38.98062721 86.13689636 41.97245233 83.5 45 C80.10746907 48.89512811 76.64805799 52.72782763 73.1875 56.5625 C71.27445851 58.69417481 69.38112388 60.8401911 67.5 63 C64.86310364 66.02754767 62.18983431 69.01937279 59.5 72 C58.74847656 72.83660156 57.99695313 73.67320312 57.22265625 74.53515625 C55.78078195 76.13414163 54.33070661 77.72578421 52.87109375 79.30859375 C52.23300781 80.01113281 51.59492187 80.71367187 50.9375 81.4375 C50.36902344 82.05496094 49.80054688 82.67242187 49.21484375 83.30859375 C47.70831727 85.05902579 47.70831727 85.05902579 48 88 C49.01813839 89.66016927 49.01813839 89.66016927 50.45703125 91.30078125 C50.98683594 91.94080078 51.51664063 92.58082031 52.0625 93.24023438 C52.64 93.92408203 53.2175 94.60792969 53.8125 95.3125 C55.0179247 96.76610037 56.22233573 98.22054188 57.42578125 99.67578125 C58.33384521 100.76947021 58.33384521 100.76947021 59.26025391 101.88525391 C61.72635543 104.88292039 64.1171919 107.93600947 66.5 111 C70.44085869 116.04929285 74.45026589 121.03764975 78.5 126 C83.00759973 131.52339685 87.44842642 137.09184436 91.8359375 142.7109375 C95.33776559 147.18437108 98.9082844 151.59852729 102.5 156 C107.96327108 162.69932711 113.34806846 169.4540254 118.65625 176.27685547 C120.06723775 178.08622167 121.48659117 179.8888381 122.90625 181.69140625 C123.83366155 182.87734757 124.76075657 184.06353651 125.6875 185.25 C126.12215576 185.79938232 126.55681152 186.34876465 127.00463867 186.91479492 C130 190.7720955 130 190.7720955 130 193 C103.72927571 195.07442447 103.72927571 195.07442447 98.265625 190.78515625 C95.75301134 187.66081149 93.88814266 184.5332965 92 181 C90.45191264 178.93148054 88.86713383 176.8900001 87.25 174.875 C86.41745139 173.79014885 85.58813307 172.7028126 84.76171875 171.61328125 C81.55553606 167.40878036 78.30983012 163.2352578 75.0625 159.0625 C74.46211914 158.29083496 73.86173828 157.51916992 73.24316406 156.72412109 C69.23813331 151.58053282 65.2165657 146.45025512 61.18383789 141.32836914 C56.8334528 135.79864847 52.51765268 130.24220871 48.20239258 124.68505859 C45.47153888 121.17026187 42.73669858 117.65900952 39.98046875 114.1640625 C39.50673828 113.56335938 39.03300781 112.96265625 38.54492188 112.34375 C37.29564635 110.76193351 36.04440048 109.18167369 34.79296875 107.6015625 C30.79800888 102.45001985 26.91143383 97.2152451 23 92 C22.67 125.33 22.34 158.66 22 193 C14.74 193 7.48 193 0 193 C0 129.31 0 65.62 0 0 Z " fill="#FCFCFC" transform="translate(821,66)"/>
<path d="M0 0 C2.21604454 2.76196761 3.71946991 5.35391516 5.04272461 8.63354492 C5.41919632 9.55815521 5.79566803 10.4827655 6.18354797 11.43539429 C6.58575058 12.44026886 6.98795319 13.44514343 7.40234375 14.48046875 C7.83181808 15.53964508 8.26129242 16.59882141 8.70378113 17.69009399 C10.12040216 21.18707877 11.52885487 24.6872957 12.9375 28.1875 C13.92953863 30.6398249 14.92222285 33.09188873 15.91552734 35.54370117 C17.7008467 39.95109344 19.48445197 44.35917062 21.26573181 48.76819706 C25.45236807 59.1298511 29.67434076 69.47697344 33.90270996 79.82165527 C35.54467121 83.83940147 37.18483216 87.85788163 38.82504272 91.87634277 C42.15432694 100.03280494 45.48542198 108.18852646 48.81762695 116.34379578 C52.99515262 126.56794722 57.16948496 136.79339001 61.33813477 147.02116394 C63.81728198 153.10296971 66.30156061 159.18265079 68.78901672 165.26106262 C70.39860662 169.19743989 72.00379952 173.13559913 73.6078186 177.07424927 C74.36344037 178.92711452 75.12087907 180.77923993 75.88021851 182.63058472 C76.91976374 185.16584927 77.95285743 187.70364834 78.984375 190.2421875 C79.29266739 190.98967758 79.60095978 191.73716766 79.91859436 192.50730896 C81.12505678 195.49270775 82 197.74766701 82 201 C74.08 201 66.16 201 58 201 C57.37432129 199.42065674 56.74864258 197.84131348 56.10400391 196.21411133 C54.03255205 190.98539233 51.96102398 185.75670354 49.88944435 180.52803516 C48.63393505 177.35912074 47.37845597 174.19019435 46.12304688 171.02124023 C44.67847637 167.3748012 43.23377277 163.72841491 41.7890625 160.08203125 C41.34003571 158.94852737 40.89100891 157.8150235 40.42837524 156.64717102 C40.00809052 155.58644882 39.58780579 154.52572662 39.15478516 153.43286133 C38.78616364 152.50242508 38.41754211 151.57198883 38.03775024 150.61335754 C37.0293482 148.07390731 36.01476562 145.53691405 35 143 C12.23 143 -10.54 143 -34 143 C-39.70010265 157.59756136 -39.70010265 157.59756136 -45.3972168 172.19628906 C-49.16491596 181.84185523 -52.95144713 191.46817287 -57 201 C-64.92 201 -72.84 201 -81 201 C-80.28851319 197.44256595 -79.63231015 194.76869263 -78.3203125 191.49316406 C-77.80108215 190.18819977 -77.80108215 190.18819977 -77.2713623 188.85687256 C-76.89306274 187.91926086 -76.51476318 186.98164917 -76.125 186.015625 C-75.72897583 185.02500061 -75.33295166 184.03437622 -74.92492676 183.01373291 C-73.62123425 179.75728271 -72.31085797 176.50357176 -71 173.25 C-70.08518724 170.97074295 -69.17047481 168.69144562 -68.25585938 166.41210938 C-62.42806741 151.91250154 -56.49398848 137.45981912 -50.47265625 123.03967285 C-44.06821159 107.6954391 -37.88281488 92.26831815 -31.73434448 76.81997681 C-25.12155804 60.21185162 -18.36789436 43.66813806 -11.46679688 27.17773438 C-10.81228706 25.61206817 -10.15798282 24.046316 -9.50390625 22.48046875 C-9.19715973 21.74665985 -8.89041321 21.01285095 -8.57437134 20.25680542 C-6.24116336 14.64718451 -4.04755896 8.99528557 -1.92553711 3.30200195 C-1 1 -1 1 0 0 Z M0 53 C-11.40769096 80.62370555 -11.40769096 80.62370555 -22.5 108.375 C-22.96188721 109.54901367 -23.42377441 110.72302734 -23.8996582 111.93261719 C-25.97838589 116.33926472 -25.97838589 116.33926472 -27 121 C-8.85 121 9.3 121 28 121 C24.36343042 111.30248113 20.71480773 101.65238665 16.8203125 92.0625 C16.36268524 90.93094482 15.90505798 89.79938965 15.43356323 88.63354492 C13.99926995 85.08825953 12.56219386 81.54411039 11.125 78 C10.14043884 75.56778368 9.15606242 73.13549257 8.171875 70.703125 C5.78337783 64.80121992 3.39260714 58.90024002 1 53 C0.67 53 0.34 53 0 53 Z " fill="#FCFCFC" transform="translate(1354,58)"/>
<path d="M0 0 C6.50924973 5.35862478 11.94283971 12.21523787 14.6328125 20.28515625 C12.40820937 21.91673256 10.17853682 23.5404551 7.9453125 25.16015625 C7.31947266 25.62035156 6.69363281 26.08054688 6.04882812 26.5546875 C2.68603779 28.98434753 -0.38857506 30.96148787 -4.3671875 32.28515625 C-4.9240625 31.48851562 -5.4809375 30.691875 -6.0546875 29.87109375 C-12.68049322 20.67107297 -18.87624669 13.7128198 -30.3671875 11.28515625 C-37.25004504 10.33214521 -43.80099082 11.89927599 -49.57421875 15.76171875 C-56.04344972 21.01871906 -59.18842492 26.40446424 -60.3046875 34.66015625 C-60.77496848 42.73331313 -58.52207019 50.01570432 -53.3671875 56.28515625 C-46.14209711 64.31516387 -35.99357537 68.21764522 -26.38427734 72.66601562 C-0.77583769 84.52445809 -0.77583769 84.52445809 7.6328125 92.28515625 C8.29667969 92.89230469 8.96054687 93.49945313 9.64453125 94.125 C20.05242681 104.80381692 24.03891331 119.00964798 23.9453125 133.53515625 C23.93967285 134.45611084 23.9340332 135.37706543 23.92822266 136.32592773 C23.64743724 152.17362322 19.00798858 165.5453895 7.9140625 177.1015625 C-5.89061654 190.31528781 -21.21252492 192.92566376 -39.67578125 192.59375 C-54.16543297 192.01855546 -66.55772648 186.16909122 -76.5234375 175.5703125 C-82.67366056 167.94768434 -87.32078389 158.90024379 -89.3671875 149.28515625 C-88.20846496 145.80898864 -87.75195355 145.64960644 -84.65625 144.0234375 C-83.53089844 143.42885742 -83.53089844 143.42885742 -82.3828125 142.82226562 C-81.59390625 142.41814453 -80.805 142.01402344 -79.9921875 141.59765625 C-79.21101563 141.18193359 -78.42984375 140.76621094 -77.625 140.33789062 C-71.77016626 137.28515625 -71.77016626 137.28515625 -68.3671875 137.28515625 C-67.93019531 138.75275391 -67.93019531 138.75275391 -67.484375 140.25 C-64.18388685 150.95949614 -60.27052603 161.01939014 -50.3671875 167.28515625 C-41.20186744 171.94032673 -31.97468291 172.71292777 -22.0546875 170.09765625 C-17.48302096 168.56640562 -14.16613246 166.21350966 -10.3671875 163.28515625 C-9.7071875 163.28515625 -9.0471875 163.28515625 -8.3671875 163.28515625 C-7.9959375 162.48078125 -7.9959375 162.48078125 -7.6171875 161.66015625 C-6.3671875 159.28515625 -6.3671875 159.28515625 -4.4296875 156.78515625 C0.66969057 149.2602313 1.60828133 139.19487159 0.1640625 130.4453125 C-2.12857265 119.62352874 -7.28401616 111.64194125 -16.3671875 105.28515625 C-24.08362441 100.59910158 -32.20219056 96.88481975 -40.43383789 93.20898438 C-58.84630515 84.97357452 -58.84630515 84.97357452 -66.3671875 78.28515625 C-67.02203125 77.72570312 -67.676875 77.16625 -68.3515625 76.58984375 C-77.64439442 68.05155801 -82.90467028 55.98403774 -83.5703125 43.46484375 C-83.85442295 27.85867498 -80.77582595 15.19947624 -69.84765625 3.4921875 C-50.99207011 -13.28483008 -20.47445635 -14.83215567 0 0 Z " fill="#FCFCFC" transform="translate(505.3671875,70.71484375)"/>
<path d="M0 0 C6.64832532 5.16560528 13.23236549 11.61071685 16.171875 19.6875 C14.3984768 24.45200243 10.82573254 26.32502964 6.734375 29 C6.05310547 29.46728516 5.37183594 29.93457031 4.66992188 30.41601562 C3.68282227 31.07053711 3.68282227 31.07053711 2.67578125 31.73828125 C2.07580322 32.13700439 1.4758252 32.53572754 0.85766602 32.9465332 C-0.828125 33.6875 -0.828125 33.6875 -3.828125 32.6875 C-5.1171875 30.90234375 -5.1171875 30.90234375 -6.453125 28.625 C-11.15163118 21.35101635 -17.03158829 15.37094905 -25.578125 13.0859375 C-33.47576802 11.68739655 -40.97961439 12.53166469 -47.80859375 16.9765625 C-52.97316861 21.09500813 -56.56218119 26.09749341 -57.828125 32.6875 C-58.4965854 40.87340031 -58.23090827 47.62354076 -53.828125 54.6875 C-53.46203125 55.28949219 -53.0959375 55.89148438 -52.71875 56.51171875 C-44.702571 67.52159423 -26.88804868 73.15953874 -14.8371582 78.76293945 C-6.46785223 82.6657295 1.22537257 86.46764335 8.171875 92.6875 C8.82220703 93.26395264 9.47253906 93.84040527 10.14257812 94.43432617 C21.04164726 104.37399203 25.41923881 118.25286959 26.15039062 132.66552734 C26.58684099 148.33635284 22.90639637 162.36991485 13.171875 174.6875 C12.56472656 175.5125 11.95757813 176.3375 11.33203125 177.1875 C3.47239499 186.28364323 -8.17474673 191.62520904 -19.828125 193.6875 C-39.5575481 195.04925093 -55.21350706 193.15380325 -71.015625 180.5 C-78.97243622 173.16882515 -86.46550735 160.79694924 -86.95703125 149.8046875 C-86.91449219 149.10601562 -86.87195313 148.40734375 -86.828125 147.6875 C-84.06269304 146.17737869 -81.28995693 144.68119852 -78.515625 143.1875 C-77.72994141 142.75824219 -76.94425781 142.32898438 -76.13476562 141.88671875 C-75.37744141 141.48066406 -74.62011719 141.07460937 -73.83984375 140.65625 C-73.14334717 140.27919922 -72.44685059 139.90214844 -71.72924805 139.51367188 C-69.828125 138.6875 -69.828125 138.6875 -66.828125 138.6875 C-66.47621094 139.72648438 -66.12429688 140.76546875 -65.76171875 141.8359375 C-61.47741987 154.10414296 -56.94549715 164.46565362 -44.828125 170.6875 C-36.47679365 174.15409037 -26.66662943 173.6517728 -18.20703125 170.71875 C-8.56026108 166.53689889 -2.85749628 160.22477662 1.046875 150.5 C3.76198746 141.25568851 3.21573659 130.44920011 -0.828125 121.6875 C-8.52952143 108.35816003 -21.47236771 102.47741563 -34.83886719 96.29492188 C-37.02380891 95.28201749 -39.20637275 94.26397041 -41.38671875 93.24121094 C-43.54211505 92.23142427 -45.70333823 91.23395078 -47.87109375 90.25097656 C-61.85648333 83.70698709 -72.79442632 74.08650363 -78.828125 59.6875 C-83.16511551 44.33747739 -83.28394428 29.98936896 -75.828125 15.6875 C-69.48092589 4.40359048 -59.79583339 -2.38969134 -47.6640625 -6.34375 C-31.8985491 -10.48651265 -13.82847357 -9.28085475 0 0 Z " fill="#FCFCFC" transform="translate(1050.828125,69.3125)"/>
<path d="M0 0 C195.36 0 390.72 0 592 0 C588.50348765 1.74825618 587.27848946 2.2621634 583.64648438 2.45483398 C582.77300858 2.50518295 581.89953278 2.55553192 580.99958801 2.60740662 C580.04066147 2.65317337 579.08173492 2.69894012 578.09375 2.74609375 C576.55354439 2.82942711 576.55354439 2.82942711 574.98222351 2.91444397 C571.48860671 3.09937697 567.9944613 3.26931535 564.5 3.4375 C563.25457428 3.49969727 562.00914856 3.56189453 560.72598267 3.62597656 C502.37000432 6.5334341 443.96762606 8.16113777 385.55944872 9.57654953 C383.59018476 9.62432831 381.62092661 9.67234616 379.65166855 9.72036743 C324.54504602 11.06294186 269.43290345 12.02207005 214.3125 12.5625 C213.27349297 12.57284019 212.23448593 12.58318039 211.16399384 12.59383392 C173.99557004 12.96164438 136.82777897 13.10734809 99.65776104 13.12211341 C95.02050567 13.12400172 90.38325567 13.12802369 85.7460022 13.13284302 C58.48246341 13.15770092 31.24348148 13.14836314 4 12 C3.3291288 10.3767313 2.66342971 8.75132422 2 7.125 C1.62875 6.22007812 1.2575 5.31515625 0.875 4.3828125 C0 2 0 2 0 0 Z " fill="#FCFCFC" transform="translate(831,315)"/>
<path d="M0 0 C195.03 0 390.06 0 591 0 C589 9 589 9 587 12 C584.64323425 12.4303894 584.64323425 12.4303894 581.57885742 12.50732422 C580.39133377 12.54221954 579.20381012 12.57711487 577.9803009 12.61306763 C576.62620324 12.63605647 575.2720915 12.65822683 573.91796875 12.6796875 C572.46118565 12.71254812 571.00441408 12.74592324 569.5476532 12.77975464 C546.80030668 13.25849324 524.03821169 13.15300176 501.28728867 13.12897491 C497.25733177 13.12494483 493.22737639 13.12246084 489.19741821 13.12030029 C389.19467655 13.06125597 289.19975431 11.79843921 70.9375 5.4375 C70.19704185 5.40812977 69.45658371 5.37875954 68.69368744 5.3484993 C59.17711236 4.97031518 49.66246315 4.56081921 40.14931488 4.10323334 C38.65486206 4.03145356 37.16037818 3.96031859 35.66587067 3.88968658 C30.77619031 3.65813541 25.88726937 3.4153399 20.99887276 3.1580677 C19.43150674 3.0767808 17.86398175 2.99849788 16.29630852 2.92336845 C14.12738933 2.81850024 11.95940656 2.70193176 9.79125977 2.58227539 C7.92982079 2.48602623 7.92982079 2.48602623 6.03077698 2.38783264 C3 2 3 2 0 0 Z " fill="#FDFDFD" transform="translate(188,315)"/>
<path d="M0 0 C230.53382613 -0.43031271 230.53382613 -0.43031271 335.43516541 1.91716003 C339.10359606 2.00240738 342.77206524 2.08577188 346.44055176 2.1685791 C417.93764661 3.78292883 489.43886225 5.68295638 560.875 9.125 C561.67561859 9.16352081 562.47623718 9.20204163 563.30111694 9.24172974 C571.55270913 9.64550461 579.77974318 10.15986226 588 11 C588 11.33 588 11.66 588 12 C392.64 12 197.28 12 -4 12 C-2.68 8.04 -1.36 4.08 0 0 Z " fill="#FDFDFD" transform="translate(835,301)"/>
<path d="M0 0 C12.4244651 0.01144169 24.84893096 0.0167413 37.27340007 0.02170384 C62.7070369 0.031991 88.14066434 0.04942924 113.57429302 0.07202744 C114.24783801 1.50631746 114.91289002 2.94459801 115.57429302 4.38452744 C115.94554302 5.18503526 116.31679302 5.98554307 116.69929302 6.81030869 C117.57429302 9.07202744 117.57429302 9.07202744 117.57429302 12.07202744 C-77.45570698 12.07202744 -272.48570698 12.07202744 -473.42570698 12.07202744 C-473.42570698 11.74202744 -473.42570698 11.41202744 -473.42570698 11.07202744 C-452.95710823 9.61262612 -432.49205033 8.47297457 -411.98820698 7.63452744 C-410.47704732 7.57204742 -408.96588806 7.50955737 -407.4547292 7.44705796 C-344.30578308 4.84968321 -281.11294756 3.25748645 -217.92570698 1.94702744 C-216.99360024 1.92751401 -216.0614935 1.90800057 -215.1011411 1.88789582 C-202.75075319 1.6295742 -190.40007125 1.39779723 -178.04878438 1.18686509 C-173.45663806 1.10822189 -168.86460829 1.02472549 -164.27260029 0.93839097 C-109.51657347 -0.08086122 -54.76388393 -0.05135008 0 0 Z " fill="#FDFDFD" transform="translate(661.4257069826126,300.9279725551605)"/>
<path d="M0 0 C9.57 0 19.14 0 29 0 C33.49929583 11.24823957 33.49929583 11.24823957 34.96020508 15.42578125 C35.29240051 16.37203369 35.62459595 17.31828613 35.96685791 18.29321289 C36.31424011 19.28957764 36.66162231 20.28594238 37.01953125 21.3125 C37.39535339 22.3842749 37.77117554 23.4560498 38.15838623 24.56030273 C38.96221287 26.85303788 39.76511677 29.14609671 40.56716919 31.43945312 C42.68064825 37.48213767 44.80113215 43.52236161 46.921875 49.5625 C47.56166039 51.38515381 47.56166039 51.38515381 48.21437073 53.24462891 C52.90907398 66.60745965 57.67436455 79.94482482 62.4543457 93.27734375 C62.74891663 94.09952393 63.04348755 94.9217041 63.34698486 95.76879883 C63.88785372 97.277993 64.42934092 98.78696579 64.97161865 100.2956543 C66.36479843 104.18151652 67.7006778 108.08189639 69 112 C69.06945436 98.76996827 69.12278814 85.53997979 69.15543652 72.30980301 C69.17110464 66.16675638 69.19236406 60.02383431 69.22631836 53.88085938 C69.25887057 47.95458499 69.27684438 42.02843055 69.28463173 36.10207367 C69.29018265 33.83899802 69.301022 31.57592906 69.31719017 29.31290436 C69.33890911 26.14758521 69.3419692 22.98276426 69.34057617 19.81738281 C69.351362 18.87798859 69.36214783 17.93859436 69.3732605 16.97073364 C69.37392819 12.0049225 69.37392819 12.0049225 67.63374329 7.43817139 C65.44581708 5.51215713 63.67362801 5.19589008 60.8125 4.75 C59.91144531 4.60046875 59.01039063 4.4509375 58.08203125 4.296875 C57.39496094 4.19890625 56.70789063 4.1009375 56 4 C56 2.68 56 1.36 56 0 C65.57 0 75.14 0 85 0 C85 1.32 85 2.64 85 4 C82.03 4.66 79.06 5.32 76 6 C75.67 52.2 75.34 98.4 75 146 C69.72 146 64.44 146 59 146 C51.54366352 125.80993221 44.25971934 105.56532249 37.10736084 85.26574707 C35.14894711 79.70828498 33.18764998 74.15184068 31.2257576 68.59560585 C30.56447036 66.72174198 29.90431382 64.8474792 29.24423218 62.97319031 C24.88864673 50.62757483 20.442291 38.31463201 16 26 C15.92988898 40.1254445 15.87720111 54.25086198 15.84456348 68.37644482 C15.82889998 74.93535072 15.80764888 81.49413983 15.77368164 88.05297852 C15.74111312 94.38125572 15.72315214 100.7094205 15.71536827 107.03777504 C15.7098203 109.45353274 15.69898664 111.86928422 15.68280983 114.28499413 C15.66106936 117.66563649 15.65803172 121.04581278 15.65942383 124.42651367 C15.648638 125.42776779 15.63785217 126.42902191 15.6267395 127.46061707 C15.62952675 134.23986609 15.62952675 134.23986609 19 140 C21.48513583 140.81406498 21.48513583 140.81406498 24.1875 140.8125 C25.08855469 140.86019531 25.98960937 140.90789062 26.91796875 140.95703125 C27.60503906 140.97121094 28.29210937 140.98539063 29 141 C29 142.65 29 144.3 29 146 C19.43 146 9.86 146 0 146 C0 144.35 0 142.7 0 141 C1.11375 140.7525 2.2275 140.505 3.375 140.25 C6.96841122 139.40953108 6.96841122 139.40953108 8.20915794 137.26276779 C9.14970386 134.57166532 9.26208124 132.39786479 9.2784729 129.54571533 C9.28963638 128.43796249 9.30079987 127.33020966 9.31230164 126.18888855 C9.31446182 124.97832291 9.31662201 123.76775726 9.31884766 122.52050781 C9.32889328 121.24220596 9.3389389 119.96390411 9.34928894 118.64686584 C9.37658447 115.145161 9.39173696 111.64349638 9.40471697 108.14171314 C9.4203495 104.4808014 9.44713932 100.81997176 9.4727478 97.15911865 C9.51953345 90.22837795 9.55627857 83.29762179 9.58942068 76.36680388 C9.62764359 68.47563764 9.6770533 60.58455386 9.72740483 52.69345713 C9.83072151 36.46236297 9.91958593 20.23122396 10 4 C6.7 4 3.4 4 0 4 C0 2.68 0 1.36 0 0 Z " fill="#FCFCFC" transform="translate(428,379)"/>
<path d="M0 0 C7.26 0 14.52 0 22 0 C22 63.69 22 127.38 22 193 C14.74 193 7.48 193 0 193 C0 129.31 0 65.62 0 0 Z " fill="#FDFDFD" transform="translate(750,66)"/>
<path d="M0 0 C2.33462499 1.6137428 2.33462499 1.6137428 5.35546875 1.36328125 C6.01546875 -0.28671875 6.67546875 -1.93671875 7.35546875 -3.63671875 C8.67546875 -3.63671875 9.99546875 -3.63671875 11.35546875 -3.63671875 C11.35546875 9.56328125 11.35546875 22.76328125 11.35546875 36.36328125 C10.03546875 36.36328125 8.71546875 36.36328125 7.35546875 36.36328125 C7.20513184 35.77949707 7.05479492 35.19571289 6.89990234 34.59423828 C2.6572955 15.44820975 2.6572955 15.44820975 -9.71484375 1.1328125 C-13.99124292 -0.57255316 -18.50867358 -0.45820247 -22.77734375 1.18359375 C-26.43316959 3.49334146 -28.20118687 7.65767613 -29.2578125 11.72265625 C-30.86447614 22.69341002 -27.72153319 32.31780141 -21.64453125 41.36328125 C-18.42781727 45.66620505 -14.84863928 49.64864426 -11.23388672 53.61767578 C0.78664308 66.81994737 11.98249364 80.04480799 17.35546875 97.36328125 C17.55398437 97.976875 17.7525 98.59046875 17.95703125 99.22265625 C20.01863417 110.298719 19.07055569 122.09679448 12.8828125 131.6328125 C8.02571548 137.82187939 1.70873675 140.91219192 -5.64453125 143.36328125 C-15.87286771 144.11139699 -24.27905806 143.87515643 -32.39453125 137.05078125 C-34.55410077 135.0394193 -34.55410077 135.0394193 -37.45703125 135.61328125 C-38.17890625 135.86078125 -38.90078125 136.10828125 -39.64453125 136.36328125 C-40.30453125 138.34328125 -40.96453125 140.32328125 -41.64453125 142.36328125 C-43.29453125 142.36328125 -44.94453125 142.36328125 -46.64453125 142.36328125 C-46.64453125 127.18328125 -46.64453125 112.00328125 -46.64453125 96.36328125 C-44.99453125 96.36328125 -43.34453125 96.36328125 -41.64453125 96.36328125 C-41.48597656 97.3790625 -41.32742187 98.39484375 -41.1640625 99.44140625 C-38.93228127 112.92748294 -35.41111405 125.164985 -25.08203125 134.73828125 C-20.2343084 137.97009648 -16.50283031 138.87716713 -10.64453125 138.36328125 C-6.5098882 136.77303392 -3.7710991 135.29743178 -1.64453125 131.36328125 C2.05289525 121.19535838 0.31284152 110.92114642 -4.140625 101.265625 C-9.08745223 91.7188909 -15.27442735 84.15146236 -22.64453125 76.36328125 C-37.70264465 59.95901634 -47.53538826 45.14334969 -46.77636719 22.50390625 C-46.2003637 13.15131626 -41.90453321 6.30378306 -35.14453125 0.05078125 C-23.60998526 -7.7350373 -11.74178921 -7.26707486 0 0 Z " fill="#FCFCFC" transform="translate(187.64453125,382.63671875)"/>
<path d="M0 0 C22.44 0 44.88 0 68 0 C68 10.89 68 21.78 68 33 C66.68 33 65.36 33 64 33 C63.76925781 32.01 63.53851562 31.02 63.30078125 30 C60.70361552 19.3144678 60.70361552 19.3144678 55 10 C54.59910156 9.47921875 54.19820312 8.9584375 53.78515625 8.421875 C47.59980992 3.49525341 36.88555876 4.45903725 30 4 C30 24.46 30 44.92 30 66 C44.08837768 65.43451512 44.08837768 65.43451512 50 60 C52.10931142 56.86838427 52.35889172 53.97551591 52.625 50.25 C52.69976563 49.26515625 52.77453125 48.2803125 52.8515625 47.265625 C52.90054688 46.51796875 52.94953125 45.7703125 53 45 C54.32 45 55.64 45 57 45 C57 60.84 57 76.68 57 93 C55.68 93 54.36 93 53 93 C52.90203125 92.13117188 52.8040625 91.26234375 52.703125 90.3671875 C51.66527946 81.39893509 51.66527946 81.39893509 47 74 C41.24753804 70.04814748 41.24753804 70.04814748 30 70 C30 93.43 30 116.86 30 141 C33.63 141 37.26 141 41 141 C41 142.65 41 144.3 41 146 C27.47 146 13.94 146 0 146 C0 144.35 0 142.7 0 141 C3.3 141 6.6 141 10 141 C10 95.79 10 50.58 10 4 C6.7 4 3.4 4 0 4 C0 2.68 0 1.36 0 0 Z " fill="#FDFDFD" transform="translate(817,379)"/>
<path d="M0 0 C9.57 0 19.14 0 29 0 C29 0.99 29 1.98 29 3 C27.02 3 25.04 3 23 3 C23 17.52 23 32.04 23 47 C28.94 47 34.88 47 41 47 C41 32.48 41 17.96 41 3 C39.02 3 37.04 3 35 3 C35 2.01 35 1.02 35 0 C44.57 0 54.14 0 64 0 C64 0.99 64 1.98 64 3 C61.36 3 58.72 3 56 3 C56 36.99 56 70.98 56 106 C58.64 106 61.28 106 64 106 C64 107.32 64 108.64 64 110 C54.43 110 44.86 110 35 110 C35 108.68 35 107.36 35 106 C36.98 106 38.96 106 41 106 C41 87.85 41 69.7 41 51 C35.06 51 29.12 51 23 51 C23 69.15 23 87.3 23 106 C24.98 106 26.96 106 29 106 C29 107.32 29 108.64 29 110 C19.43 110 9.86 110 0 110 C0 108.68 0 107.36 0 106 C2.64 106 5.28 106 8 106 C8 72.01 8 38.02 8 3 C5.36 3 2.72 3 0 3 C0 2.01 0 1.02 0 0 Z " fill="#FDFDFD" transform="translate(213,415)"/>
<path d="M0 0 C4.96212553 -0.0747135 9.92391641 -0.1288656 14.88647461 -0.16479492 C16.57110302 -0.17978874 18.25569303 -0.20019073 19.94018555 -0.22631836 C41.20483858 -0.54765089 41.20483858 -0.54765089 47.875 5.6875 C52.17767727 12.39461456 53.49502751 18.18487562 53.375 26 C53.38660156 26.75539063 53.39820313 27.51078125 53.41015625 28.2890625 C53.3770299 34.7155745 52.30032851 40.39618646 47.95703125 45.3125 C47.24933594 45.869375 46.54164063 46.42625 45.8125 47 C45.09707031 47.5775 44.38164063 48.155 43.64453125 48.75 C43.10183594 49.1625 42.55914063 49.575 42 50 C42.928125 50.53625 43.85625 51.0725 44.8125 51.625 C49.2647555 54.94236685 50.87098002 58.68549538 52 64 C52.10825106 65.34210855 52.17472864 66.68806019 52.20532227 68.03417969 C52.22526749 68.81468689 52.24521271 69.59519409 52.26576233 70.39935303 C52.29083107 71.6480014 52.29083107 71.6480014 52.31640625 72.921875 C52.33718735 73.78186096 52.35796844 74.64184692 52.37937927 75.52789307 C52.44463739 78.26851598 52.50364917 81.00923275 52.5625 83.75 C52.60570781 85.6106867 52.64932282 87.47136398 52.69335938 89.33203125 C52.80029442 93.88792523 52.90162851 98.4439134 53 103 C54.99983534 102.20882096 54.99983534 102.20882096 57 101 C57.495 99.515 57.495 99.515 58 98 C59.32 98.33 60.64 98.66 62 99 C61.73497804 102.79864807 61.19602849 104.74055052 58.875 107.8125 C55.36104597 110.48616068 53.40390132 111 49 111 C44.59123013 109.72967648 42.52060888 108.64391098 39.625 105.0625 C36.8541884 99.84058583 36.81574748 95.08962178 36.71875 89.25390625 C36.69113586 87.98171486 36.69113586 87.98171486 36.66296387 86.68382263 C36.60433136 83.97678418 36.55147377 81.26968346 36.5 78.5625 C36.43215315 75.00117454 36.35846072 71.44003961 36.28125 67.87890625 C36.26767456 67.0641835 36.25409912 66.24946075 36.2401123 65.41004944 C36.22339478 64.64252853 36.20667725 63.87500763 36.18945312 63.08422852 C36.17692505 62.41456558 36.16439697 61.74490265 36.15148926 61.0549469 C35.9763087 58.67862834 35.46729904 56.33649519 35 54 C31.04 53.34 27.08 52.68 23 52 C23 69.82 23 87.64 23 106 C25.31 106 27.62 106 30 106 C30 107.32 30 108.64 30 110 C20.1 110 10.2 110 0 110 C0 108.68 0 107.36 0 106 C2.31 106 4.62 106 7 106 C7 72.01 7 38.02 7 3 C4.69 3 2.38 3 0 3 C0 2.01 0 1.02 0 0 Z M23 3 C23 18.18 23 33.36 23 49 C29.89661861 49.24689052 29.89661861 49.24689052 35 46 C38.27083274 41.0548209 37.33389882 34.96305474 37.31567383 29.26538086 C37.31252577 27.20437127 37.33594661 25.14481546 37.36132812 23.08398438 C37.43669828 13.60736961 37.43669828 13.60736961 34 5 C30.44668976 2.08120945 28.00459193 3 23 3 Z " fill="#FCFCFC" transform="translate(707,415)"/>
<path d="M0 0 C4.55318701 -0.07468636 9.10600998 -0.12885256 13.65966797 -0.16479492 C15.20562968 -0.1797933 16.75154948 -0.20019887 18.29736328 -0.22631836 C27.76832294 -0.38223151 35.21260465 -0.23017415 43.6875 4.5 C55.15333546 16.89549779 54.50638384 38.13013607 54.39111328 53.99609375 C54.37496487 56.63073102 54.39110747 59.26384477 54.41015625 61.8984375 C54.42819299 76.21375993 54.40326218 92.52835241 44.40234375 103.80078125 C36.2756062 111.55728019 25.47486069 110.25097405 15 110.125 C13.54297489 110.11495155 12.08594309 110.10582899 10.62890625 110.09765625 C7.08579671 110.07578711 3.54294188 110.04135977 0 110 C0 108.68 0 107.36 0 106 C2.31 106 4.62 106 7 106 C7 72.01 7 38.02 7 3 C4.69 3 2.38 3 0 3 C0 2.01 0 1.02 0 0 Z M23 3 C23 36.99 23 70.98 23 106 C29.93147468 106.32106625 29.93147468 106.32106625 35 103 C37.80133094 97.64858415 38.44270482 93.38876093 38.41992188 87.40600586 C38.42839142 86.57581436 38.43686096 85.74562286 38.44558716 84.89027405 C38.46885504 82.1649719 38.46998204 79.44023741 38.46875 76.71484375 C38.4758559 74.81107866 38.48355553 72.9073157 38.49182129 71.0035553 C38.50524126 67.0217594 38.50684521 63.04016174 38.50097656 59.05834961 C38.49507173 53.96156389 38.52571596 48.86572786 38.56609344 43.76912594 C38.59196359 39.84081416 38.59484869 35.91273161 38.59120178 31.98434639 C38.59289254 30.10529753 38.6025308 28.22623804 38.62034607 26.34727287 C38.64253126 23.71906987 38.63283844 21.0927971 38.61523438 18.46459961 C38.62849762 17.69300507 38.64176086 16.92141052 38.65542603 16.12643433 C38.59435232 12.19382016 38.06432934 9.58530572 35.64904785 6.53346252 C31.23888934 2.3157315 29.51393013 3 23 3 Z " fill="#FDFDFD" transform="translate(584,415)"/>
<path d="M0 0 C4.55318701 -0.07468636 9.10600998 -0.12885256 13.65966797 -0.16479492 C15.20562968 -0.1797933 16.75154948 -0.20019887 18.29736328 -0.22631836 C36.56598094 -0.52706061 36.56598094 -0.52706061 43.75 5.1875 C54.44336724 18.55420905 54.18697745 36.90739499 54.18530273 53.23583984 C54.18747592 55.59881988 54.20564512 57.96132171 54.22460938 60.32421875 C54.34487425 92.03516419 54.34487425 92.03516419 45.17578125 103.2265625 C36.63442665 111.38196198 26.02932881 110.25764226 15 110.125 C13.54297489 110.11495155 12.08594309 110.10582899 10.62890625 110.09765625 C7.08579671 110.07578711 3.54294188 110.04135977 0 110 C0 108.68 0 107.36 0 106 C2.31 106 4.62 106 7 106 C7 72.01 7 38.02 7 3 C4.69 3 2.38 3 0 3 C0 2.01 0 1.02 0 0 Z M22 3 C22 36.99 22 70.98 22 106 C29.56376519 106.48753187 29.56376519 106.48753187 35 103 C37.564611 97.28810161 38.43857715 92.67440723 38.38818359 86.46020508 C38.39344055 85.6477684 38.39869751 84.83533173 38.40411377 83.99827576 C38.41721522 81.33849318 38.40861352 78.67931888 38.3984375 76.01953125 C38.40046048 74.15964138 38.40337379 72.29975228 38.40713501 70.43986511 C38.41154449 66.55398967 38.40516955 62.66832191 38.39111328 58.7824707 C38.37398635 53.80577306 38.38389344 48.8295596 38.40183067 43.85287952 C38.41267521 40.01727148 38.40921971 36.18177813 38.4014473 32.34616661 C38.399449 30.51097239 38.40189154 28.67576769 38.40888596 26.84058571 C38.41651546 24.27731356 38.40487716 21.71482517 38.38818359 19.15161133 C38.39425629 18.39669403 38.40032898 17.64177673 38.40658569 16.86398315 C38.35273544 12.3946363 37.73241145 9.56503235 35 6 C30.40832533 2.19546956 28.68662465 3 22 3 Z " fill="#FDFDFD" transform="translate(1086,415)"/>
<path d="M0 0 C7.96013775 4.73975007 11.15626773 12.97321461 13.625 21.5 C15.88557537 30.99681847 15.96573156 40.48698215 15.94067383 50.18896484 C15.93752245 52.73188559 15.96102319 55.27362905 15.98632812 57.81640625 C16.04721953 73.40290505 15.09093905 91.24467273 5.125 104.0625 C0.31978238 108.74758718 -3.57362126 110.26655177 -10.125 110.8125 C-15.6598868 110.70962106 -19.84288538 108.63889212 -24.03515625 105.09765625 C-38.41490102 90.05592834 -36.91005574 64.56931578 -36.59765625 45.45703125 C-36.23100249 31.62552492 -35.42798135 15.11861985 -26.0546875 4.08984375 C-19.04009735 -2.54954739 -8.884763 -3.81261861 0 0 Z M-16.8125 4.8125 C-19.52025101 9.46983174 -19.52874813 13.4910567 -19.53613281 18.73168945 C-19.54109772 19.57105042 -19.54606262 20.41041138 -19.55117798 21.27520752 C-19.56579379 24.05457375 -19.57260082 26.83388289 -19.578125 29.61328125 C-19.58387716 31.54518129 -19.58963489 33.47708131 -19.59539795 35.40898132 C-19.60590644 39.46170315 -19.61175003 43.51440514 -19.61523438 47.56713867 C-19.62071718 52.75569877 -19.64474132 57.94399619 -19.67320633 63.13247395 C-19.69184696 67.12422954 -19.69703908 71.11592207 -19.69857025 75.10771751 C-19.70159435 77.02024966 -19.70961468 78.93278076 -19.72275543 80.84527016 C-19.73984483 83.52375791 -19.73792859 86.20160652 -19.73144531 88.88012695 C-19.7406601 89.66735641 -19.74987488 90.45458588 -19.7593689 91.26567078 C-19.71674409 96.89838801 -18.33446615 100.70076264 -15.0625 105.375 C-12.35246424 107.18169051 -10.54796619 107.00767459 -7.375 106.5 C-2.80252459 103.07064344 -1.62659635 99.9585898 -0.375 94.5 C-0.19030841 91.76322418 -0.09093177 89.13028261 -0.1003418 86.39672852 C-0.09523087 85.61851746 -0.09011993 84.8403064 -0.08485413 84.03851318 C-0.07103942 81.485231 -0.07190863 78.93222119 -0.07421875 76.37890625 C-0.07032757 74.59203492 -0.06599203 72.80516452 -0.06123352 71.01829529 C-0.05378893 67.28031409 -0.05404995 63.54242737 -0.05932617 59.80444336 C-0.06512076 55.02868879 -0.04818153 50.25332205 -0.0249815 45.47763157 C-0.01020755 41.78946189 -0.00937739 38.10138487 -0.01249123 34.41319084 C-0.01197993 32.6530372 -0.00677841 30.89287811 0.00332069 29.13275337 C0.01574025 26.66580537 0.0088611 24.19960324 -0.00268555 21.73266602 C0.00495819 21.01501572 0.01260193 20.29736542 0.02047729 19.55796814 C-0.03810683 13.8582756 -1.09794642 8.3478414 -4.73292065 3.8016901 C-7.11921426 1.9100551 -9.47621043 1.97079136 -12.4375 2.07421875 C-14.68208128 2.39263938 -14.68208128 2.39263938 -16.8125 4.8125 Z " fill="#FCFCFC" transform="translate(1335.375,415.5)"/>
<path d="M0 0 C7.20975271 4.35620848 10.43016238 12.5114482 12.75 20.25390625 C19.199045 46.51516161 18.59203412 78.97403632 5.6875 103.0625 C2.34014053 107.00056996 -1.52484336 108.92494779 -6.4375 110.5625 C-13.38884595 111.02592306 -18.11325632 109.89929338 -23.94921875 105.796875 C-33.01322742 97.65776518 -35.28415457 83.12841317 -36.4375 71.5625 C-36.54761709 68.86780128 -36.62409754 66.19829369 -36.640625 63.50390625 C-36.64632507 62.75648666 -36.65202515 62.00906708 -36.65789795 61.23899841 C-36.6672838 59.66333399 -36.67385616 58.0876505 -36.67773438 56.51196289 C-36.68734904 54.16189918 -36.71839534 51.81274659 -36.75 49.46289062 C-36.85004984 35.18770783 -36.54662904 15.87433133 -26.69921875 4.56640625 C-19.23019146 -2.10293931 -9.50331918 -4.02558395 0 0 Z M-16.75 4.6875 C-20.01684071 10.25322862 -20.73364062 15.29351997 -20.7121582 21.65991211 C-20.71726913 22.44933701 -20.72238007 23.2387619 -20.72764587 24.05210876 C-20.74148653 26.64809867 -20.74058937 29.24382145 -20.73828125 31.83984375 C-20.74217106 33.65296018 -20.74650632 35.46607571 -20.75126648 37.27919006 C-20.75871669 41.07442177 -20.758446 44.86956043 -20.75317383 48.66479492 C-20.74737911 53.51802359 -20.76431605 58.37087063 -20.7875185 63.22403622 C-20.80227995 66.96706859 -20.80312429 70.71000955 -20.80000877 74.45306587 C-20.80052072 76.24195677 -20.80573455 78.03085296 -20.81582069 79.8197155 C-20.82821548 82.32529084 -20.82137568 84.83012901 -20.80981445 87.33569336 C-20.81745819 88.06786072 -20.82510193 88.80002808 -20.83297729 89.55438232 C-20.7709262 95.66643736 -19.2778247 100.08758058 -15.625 105 C-13.46696278 106.78347087 -13.46696278 106.78347087 -10.4375 107.0625 C-6.73373578 106.44520596 -5.68291235 105.52965204 -3.4375 102.5625 C-1.1719395 98.16753945 -1.14138347 93.95753465 -1.14697266 89.11962891 C-1.14025543 88.28158218 -1.13353821 87.44353546 -1.12661743 86.58009338 C-1.10765731 83.81635571 -1.1037143 81.05286112 -1.1015625 78.2890625 C-1.09513338 76.36241558 -1.08840494 74.43576963 -1.08139038 72.50912476 C-1.06942272 68.4725315 -1.06570905 64.4360238 -1.06689453 60.39941406 C-1.06709773 55.23556019 -1.03979198 50.07225659 -1.00535011 44.9085331 C-0.98307642 40.92959083 -0.97905713 36.95078091 -0.98011398 32.97178268 C-0.97775888 31.06844562 -0.96894045 29.16510486 -0.95344925 27.26182938 C-0.93377895 24.59555122 -0.93963105 21.93045878 -0.95166016 19.26416016 C-0.93480164 18.09342201 -0.93480164 18.09342201 -0.91760254 16.89903259 C-0.9807198 11.37331727 -2.27683806 8.11743211 -5.4375 3.5625 C-9.57145405 1.49552298 -13.34093513 1.55484579 -16.75 4.6875 Z " fill="#FCFCFC" transform="translate(930.4375,415.4375)"/>
<path d="M0 0 C7.26 0 14.52 0 22 0 C31.77406296 26.96235518 41.40693643 53.97258611 51 81 C51 56.25 51 31.5 51 6 C48.03 5.01 45.06 4.02 42 3 C42 2.01 42 1.02 42 0 C49.26 0 56.52 0 64 0 C64 0.99 64 1.98 64 3 C62.02 3.66 60.04 4.32 58 5 C57.67 39.65 57.34 74.3 57 110 C52.71 110 48.42 110 44 110 C35.80224906 88.0578547 28.03612785 65.96725536 20.31596565 43.85369587 C19.65717149 41.96697568 18.99782678 40.08044776 18.33847046 38.19392395 C17.51823135 35.84653084 16.69919519 33.49871696 15.88150024 31.1504364 C15.51632294 30.10531387 15.15114563 29.06019135 14.77490234 27.98339844 C14.45500336 27.06572693 14.13510437 26.14805542 13.80551147 25.20257568 C13.04680248 22.99960268 13.04680248 22.99960268 12 21 C11.97682312 31.21396243 11.95905761 41.42791859 11.94818783 51.64190197 C11.94297072 56.38473121 11.9358943 61.12754245 11.92456055 65.87036133 C11.91369008 70.44798777 11.90771433 75.02559689 11.90512276 79.60323524 C11.90327602 81.34911687 11.89966982 83.09499756 11.89426994 84.84087181 C11.88700435 87.28740863 11.88601139 89.73387404 11.88647461 92.18041992 C11.88287933 92.90115189 11.87928406 93.62188385 11.87557983 94.36445618 C11.88309759 98.03725009 12.12472758 101.4284886 13 105 C15.64 105.33 18.28 105.66 21 106 C21 107.32 21 108.64 21 110 C14.07 110 7.14 110 0 110 C0 108.68 0 107.36 0 106 C2.97 105.505 2.97 105.505 6 105 C6.33 71.34 6.66 37.68 7 3 C4.69 3 2.38 3 0 3 C0 2.01 0 1.02 0 0 Z " fill="#FCFCFC" transform="translate(1016,415)"/>
<path d="M0 0 C7.26 0 14.52 0 22 0 C26.49973026 11.24932564 26.49973026 11.24932564 28.41015625 16.65209961 C28.8373999 17.85712631 29.26464355 19.06215302 29.70483398 20.30369568 C30.15741782 21.58656831 30.60997244 22.86945126 31.0625 24.15234375 C31.54025528 25.50182228 32.01820514 26.85123195 32.49633789 28.20057678 C33.74594059 31.728536 34.99320594 35.25731673 36.23986816 38.78631592 C38.23357946 44.42854771 40.23121493 50.06939194 42.22824097 55.71045113 C42.91781363 57.65920932 43.60658062 59.60825056 44.29516602 61.55735779 C46.82745447 68.71827726 49.38893363 75.86741037 52 83 C52.04630457 73.27304698 52.08185963 63.54612011 52.10362434 53.8190794 C52.11406938 49.30260518 52.12824169 44.78620627 52.15087891 40.26977539 C52.17258165 35.91260346 52.1845632 31.55550405 52.18975449 27.19828224 C52.19345487 25.53447134 52.20068063 23.87066448 52.21146011 22.20688438 C52.22594099 19.87961571 52.22797939 17.55264815 52.22705078 15.2253418 C52.23424133 14.53482224 52.24143188 13.84430267 52.24884033 13.13285828 C52.23317702 9.51411659 52.07049303 8.10573954 50 5 C46.44327821 3.7811879 46.44327821 3.7811879 43 3 C43 2.01 43 1.02 43 0 C49.93 0 56.86 0 64 0 C64 0.99 64 1.98 64 3 C62.02 3.99 60.04 4.98 58 6 C57.67 40.32 57.34 74.64 57 110 C53.04 110 49.08 110 45 110 C41.85270553 103.1785746 39.23251907 96.28186809 36.76953125 89.1875 C36.37481125 88.06093994 35.98009125 86.93437988 35.57341003 85.77368164 C34.31623204 82.1836814 33.06411326 78.59194367 31.8125 75 C30.17484203 70.31191688 28.53505093 65.6245824 26.89453125 60.9375 C26.49283722 59.78886475 26.09114319 58.64022949 25.67727661 57.45678711 C21.52736701 45.61053972 17.27557055 33.8013882 13 22 C12.95370066 32.37887336 12.91814303 42.75772223 12.89637566 53.13667774 C12.88592948 57.95582026 12.87175508 62.77489223 12.84912109 67.59399414 C12.82742243 72.24293908 12.81543766 76.89181607 12.81024551 81.54080772 C12.8065444 83.31626137 12.79931723 85.09171121 12.78853989 86.867136 C12.77406449 89.3500643 12.77202039 91.83271026 12.77294922 94.31567383 C12.76575867 95.05294708 12.75856812 95.79022034 12.75115967 96.54983521 C12.7662232 100.26051352 12.88434432 101.82651648 15 105 C18.56769552 105.73606499 18.56769552 105.73606499 22 106 C22 107.32 22 108.64 22 110 C14.74 110 7.48 110 0 110 C0 108.68 0 107.36 0 106 C0.969375 105.7525 1.93875 105.505 2.9375 105.25 C3.948125 104.8375 4.95875 104.425 6 104 C7.01406472 101.29504601 7.13220761 98.70510321 7.15821838 95.83648682 C7.17290161 94.60397942 7.17290161 94.60397942 7.18788147 93.34657288 C7.19363693 92.45393234 7.1993924 91.56129181 7.20532227 90.64160156 C7.21522186 89.69492111 7.22512146 88.74824066 7.23532104 87.77287292 C7.26689454 84.64548234 7.29167714 81.51807657 7.31640625 78.390625 C7.33697935 76.22157396 7.35797592 74.05252689 7.37937927 71.88348389 C7.4345631 66.17563092 7.48398869 60.46774199 7.53222656 54.75982666 C7.58246848 48.93490398 7.63814051 43.1100335 7.69335938 37.28515625 C7.80089585 25.85681543 7.90235088 14.42842928 8 3 C5.36 3 2.72 3 0 3 C0 2.01 0 1.02 0 0 Z " fill="#FCFCFC" transform="translate(1359,415)"/>
<path d="M0 0 C18.81 0 37.62 0 57 0 C57 9.9 57 19.8 57 30 C55.68 30 54.36 30 53 30 C52.84144531 29.01 52.68289063 28.02 52.51953125 27 C50.70258848 16.17654586 50.70258848 16.17654586 45 7 C42.03 6.01 39.06 5.02 36 4 C36 37.66 36 71.32 36 106 C38.31 106 40.62 106 43 106 C43 107.32 43 108.64 43 110 C33.1 110 23.2 110 13 110 C13 108.68 13 107.36 13 106 C15.64 106 18.28 106 21 106 C21 72.34 21 38.68 21 4 C13.52786728 5.44789718 13.52786728 5.44789718 9.0234375 10.171875 C5.62913314 16.23498356 4.3561401 23.2512087 3 30 C2.01 30 1.02 30 0 30 C0 20.1 0 10.2 0 0 Z " fill="#FDFDFD" transform="translate(1198,415)"/>
<path d="M0 0 C9.9 0 19.8 0 30 0 C30 0.99 30 1.98 30 3 C27.69 3 25.38 3 23 3 C23.01486543 15.5610792 23.05641684 28.12175895 23.13209057 40.68262768 C23.16638907 46.5151147 23.19147505 52.34733899 23.19555664 58.17993164 C23.19983337 63.80820011 23.22824479 69.4358756 23.27343178 75.06395912 C23.2864267 77.21171936 23.29070744 79.35955048 23.28615379 81.5073452 C23.28126214 84.51490779 23.30727741 87.52072771 23.34057617 90.52807617 C23.32763771 91.86164406 23.32763771 91.86164406 23.31443787 93.22215271 C23.39693448 97.66360088 23.56596648 99.44801313 26.39863586 103.05049133 C29.82691152 105.61970224 31.70202587 105.72970731 35.84765625 105.48828125 C39.38406339 104.68601103 40.9041506 102.85797645 43 100 C45.34117117 95.52714977 45.27059687 91.19349727 45.22705078 86.26245117 C45.22734283 85.39365326 45.22763489 84.52485535 45.22793579 83.62973022 C45.22654608 80.76737366 45.2110017 77.90527966 45.1953125 75.04296875 C45.1915811 73.05471438 45.18873473 71.06645816 45.18673706 69.07820129 C45.17911063 63.85196838 45.15947059 58.6258471 45.1373291 53.3996582 C45.11684938 48.0639802 45.10773079 42.72828412 45.09765625 37.39257812 C45.07622381 26.92833644 45.04209976 16.46417751 45 6 C42.69 5.01 40.38 4.02 38 3 C38 2.01 38 1.02 38 0 C44.6 0 51.2 0 58 0 C58 0.99 58 1.98 58 3 C55.69 3.99 53.38 4.98 51 6 C50.99413376 7.0824852 50.98826752 8.1649704 50.98222351 9.28025818 C50.92489267 19.50531931 50.85207705 29.73016987 50.76428509 39.95501614 C50.71964809 45.21112457 50.68037726 50.46715669 50.65356445 55.72338867 C50.62746495 60.80044781 50.58701558 65.87721221 50.53681374 70.95408821 C50.52018992 72.88641747 50.50864781 74.81879766 50.50238609 76.75118828 C50.49269606 79.4678185 50.46457888 82.18370222 50.43237305 84.90014648 C50.43380814 85.69065399 50.43524323 86.4811615 50.4367218 87.29562378 C50.32296815 94.12563961 49.00047451 100.37080493 44.8125 105.875 C38.40593744 110.71551394 31.93570781 111.8971899 24 111 C18.28580573 109.87539794 14.92566009 107.44443625 11.2265625 103.01171875 C7.85546292 97.48268599 7.71924196 92.13787741 7.77294922 85.87353516 C7.77265717 84.97533051 7.77236511 84.07712585 7.77206421 83.15170288 C7.77345207 80.19738947 7.78898768 77.24333159 7.8046875 74.2890625 C7.80841956 72.23497658 7.81126562 70.18088888 7.81326294 68.12680054 C7.82088417 62.73125254 7.84051973 57.33581292 7.8626709 51.94030762 C7.88316184 46.43027207 7.8922716 40.92021895 7.90234375 35.41015625 C7.92376702 24.60672333 7.95788476 13.80337069 8 3 C5.36 3 2.72 3 0 3 C0 2.01 0 1.02 0 0 Z " fill="#FCFCFC" transform="translate(953,415)"/>
<path d="M0 0 C1.67542976 0.28604898 3.34385343 0.61781233 5 1 C7.8745664 14.08107318 10.74353126 27.16336098 13.60533142 40.24723339 C14.9343241 46.32241395 16.26524991 52.39715756 17.60058594 58.47094727 C18.88894174 64.33138516 20.17222947 70.19291173 21.45199585 76.05523109 C21.9413888 78.29274411 22.43261332 80.52985732 22.9256897 82.76656151 C23.61545446 85.89696843 24.29872111 89.02872749 24.98046875 92.16088867 C25.186185 93.08733688 25.39190125 94.0137851 25.60385132 94.9683075 C25.8815184 96.25336182 25.8815184 96.25336182 26.16479492 97.56437683 C26.32703049 98.3045766 26.48926605 99.04477636 26.65641785 99.80740643 C27.03671318 102.23428771 27.05759809 104.5473805 27 107 C29.64 107 32.28 107 35 107 C35 108.32 35 109.64 35 111 C25.1 111 15.2 111 5 111 C5 109.68 5 108.36 5 107 C7.31 107 9.62 107 12 107 C10.02 98.42 8.04 89.84 6 81 C0.06 81 -5.88 81 -12 81 C-12.66988021 84.60359666 -13.33603767 88.20781261 -14 91.8125 C-14.19078125 92.83666016 -14.3815625 93.86082031 -14.578125 94.91601562 C-14.75859375 95.89892578 -14.9390625 96.88183594 -15.125 97.89453125 C-15.29257812 98.80050049 -15.46015625 99.70646973 -15.6328125 100.63989258 C-16.0768657 103.09597295 -16.0768657 103.09597295 -16 106 C-13.03 106.33 -10.06 106.66 -7 107 C-7 108.32 -7 109.64 -7 111 C-14.59 111 -22.18 111 -30 111 C-30 109.68 -30 108.36 -30 107 C-26.535 106.505 -26.535 106.505 -23 106 C-20.05877319 94.64790183 -17.51500163 83.25253497 -15.1796875 71.76171875 C-14.83173976 70.06210433 -14.48351823 68.36254595 -14.13504028 66.66304016 C-13.41197014 63.13312846 -12.69113657 59.60277083 -11.97216797 56.07202148 C-11.0564901 51.57543649 -10.13670439 47.07970465 -9.21543694 42.58426189 C-8.49885363 39.08667073 -7.78364185 35.5888003 -7.06891251 32.09082985 C-6.73028587 30.43359509 -6.39143214 28.77640672 -6.05233383 27.11926842 C-5.57774091 24.79810911 -5.10453204 22.47667493 -4.63232422 20.1550293 C-4.41349484 19.08033402 -4.41349484 19.08033402 -4.19024467 17.98392773 C-3.17589488 12.9654172 -2.25278464 7.93612022 -1.41018677 2.88606262 C-1 1 -1 1 0 0 Z M-4 37 C-6.64 50.2 -9.28 63.4 -12 77 C-6.06 77 -0.12 77 6 77 C4.90519673 71.46233232 3.80534392 65.92620648 2.69189453 60.39233398 C2.31444731 58.50818638 1.94008941 56.62341722 1.56884766 54.73803711 C1.03572167 52.03331126 0.49164589 49.33099101 -0.0546875 46.62890625 C-0.21935516 45.78099014 -0.38402283 44.93307404 -0.55368042 44.0594635 C-0.97061415 42.02518955 -1.47691214 40.00959781 -2 38 C-2.66 37.67 -3.32 37.34 -4 37 Z " fill="#FBFBFB" transform="translate(670,414)"/>
<path d="M0 0 C1.65 0 3.3 0 5 0 C8.11072291 12.09642978 10.88244664 24.25138055 13.546875 36.453125 C13.96705528 38.37125533 14.38732472 40.28936612 14.80767822 42.2074585 C15.67992538 46.19051591 16.55029185 50.1739787 17.41943359 54.15771484 C18.53353168 59.26291214 19.65369573 64.366758 20.77537155 69.47029495 C21.64124582 73.41412246 22.50331901 77.35877354 23.36429596 81.30367279 C23.7760342 83.18743538 24.18910447 85.07090734 24.60353851 86.95407867 C25.17943726 89.57303063 25.75005634 92.19307905 26.31933594 94.81347656 C26.49071579 95.58747299 26.66209564 96.36146942 26.83866882 97.15892029 C27.57020791 100.55059282 28 103.51006655 28 107 C30.31 107 32.62 107 35 107 C35 108.32 35 109.64 35 111 C25.43 111 15.86 111 6 111 C6 109.68 6 108.36 6 107 C8.31 107 10.62 107 13 107 C12.81824219 106.25314941 12.63648438 105.50629883 12.44921875 104.73681641 C11.63045839 101.36677777 10.81518615 97.9959049 10 94.625 C9.71382812 93.449375 9.42765625 92.27375 9.1328125 91.0625 C8.86210938 89.94101562 8.59140625 88.81953125 8.3125 87.6640625 C8.06113281 86.62717285 7.80976562 85.5902832 7.55078125 84.52197266 C7 82 7 82 7 80 C0.73 80 -5.54 80 -12 80 C-12.12375 81.36125 -12.2475 82.7225 -12.375 84.125 C-12.92947103 89.816482 -13.79922431 95.44716688 -14.6953125 101.09375 C-15.2566644 103.93503409 -15.2566644 103.93503409 -14 106 C-12.10466658 106.46523063 -12.10466658 106.46523063 -9.9375 106.625 C-7.9884375 106.810625 -7.9884375 106.810625 -6 107 C-6 108.32 -6 109.64 -6 111 C-13.92 111 -21.84 111 -30 111 C-30 109.68 -30 108.36 -30 107 C-28.3603125 106.690625 -28.3603125 106.690625 -26.6875 106.375 C-22.87921631 105.37928157 -22.87921631 105.37928157 -21.3921051 102.4506073 C-19.78504597 98.46719401 -18.86637394 94.61784043 -18.03881836 90.4152832 C-17.77963371 89.15300148 -17.77963371 89.15300148 -17.51521301 87.86521912 C-16.94860514 85.09532893 -16.39413211 82.32316064 -15.83984375 79.55078125 C-15.44606953 77.61258221 -15.05157257 75.67452988 -14.65638733 73.73661804 C-13.61879712 68.63784138 -12.5916372 63.53701621 -11.56646729 58.43572998 C-10.73241425 54.2941164 -9.89120758 50.15397213 -9.04955196 46.0138979 C-4.30891506 23.04846326 -4.30891506 23.04846326 0 0 Z M-3 35 C-4.14176974 40.65950362 -5.28103927 46.3195025 -6.41796875 51.97998047 C-6.80529769 53.90655199 -7.19331609 55.83298503 -7.58203125 57.75927734 C-8.13982474 60.52405476 -8.69515732 63.2893166 -9.25 66.0546875 C-9.42499023 66.9193161 -9.59998047 67.7839447 -9.78027344 68.67477417 C-10.66849659 72.80463294 -10.66849659 72.80463294 -11 77 C-5.39 77 0.22 77 6 77 C5.36425758 67.92052371 3.43573776 59.22700653 1.4375 50.375 C1.1042863 48.87902452 0.77159993 47.38293147 0.43945312 45.88671875 C-0.3676268 42.25643787 -1.18181739 38.62779682 -2 35 C-2.33 35 -2.66 35 -3 35 Z " fill="#FBFBFB" transform="translate(546,414)"/>
<path d="M0 0 C1.65 0 3.3 0 5 0 C10.56374214 23.6222908 15.87660977 47.29858022 21.08196259 71.00204468 C21.56303854 73.18994924 22.04573171 75.37749132 22.52886963 77.56494141 C23.29778821 81.04743785 24.06234525 84.53086413 24.82354927 88.0150547 C25.24485733 89.93914287 25.67010758 91.8623665 26.09544373 93.78556824 C26.34697708 94.94196304 26.59851044 96.09835785 26.85766602 97.28979492 C27.19000999 98.80545296 27.19000999 98.80545296 27.52906799 100.35173035 C28 103 28 103 28 107 C30.31 107 32.62 107 35 107 C35 108.32 35 109.64 35 111 C25.43 111 15.86 111 6 111 C6 109.68 6 108.36 6 107 C8.31 107 10.62 107 13 107 C12.73445313 105.97261719 12.46890625 104.94523438 12.1953125 103.88671875 C10.16704943 95.95770548 8.34664825 88.07988948 7 80 C0.73 80 -5.54 80 -12 80 C-12.12375 81.36125 -12.2475 82.7225 -12.375 84.125 C-12.92947103 89.816482 -13.79922431 95.44716688 -14.6953125 101.09375 C-15.2566644 103.93503409 -15.2566644 103.93503409 -14 106 C-12.10466658 106.46523063 -12.10466658 106.46523063 -9.9375 106.625 C-7.9884375 106.810625 -7.9884375 106.810625 -6 107 C-6 108.32 -6 109.64 -6 111 C-13.92 111 -21.84 111 -30 111 C-30 109.68 -30 108.36 -30 107 C-28.3603125 106.690625 -28.3603125 106.690625 -26.6875 106.375 C-22.87921631 105.37928157 -22.87921631 105.37928157 -21.3921051 102.4506073 C-19.78504597 98.46719401 -18.86637394 94.61784043 -18.03881836 90.4152832 C-17.77963371 89.15300148 -17.77963371 89.15300148 -17.51521301 87.86521912 C-16.94860514 85.09532893 -16.39413211 82.32316064 -15.83984375 79.55078125 C-15.44606953 77.61258221 -15.05157257 75.67452988 -14.65638733 73.73661804 C-13.61879712 68.63784138 -12.5916372 63.53701621 -11.56646729 58.43572998 C-10.73241425 54.2941164 -9.89120758 50.15397213 -9.04955196 46.0138979 C-4.30891506 23.04846326 -4.30891506 23.04846326 0 0 Z M-3 35 C-4.14176974 40.65950362 -5.28103927 46.3195025 -6.41796875 51.97998047 C-6.80529769 53.90655199 -7.19331609 55.83298503 -7.58203125 57.75927734 C-8.13982474 60.52405476 -8.69515732 63.2893166 -9.25 66.0546875 C-9.42499023 66.9193161 -9.59998047 67.7839447 -9.78027344 68.67477417 C-10.66849659 72.80463294 -10.66849659 72.80463294 -11 77 C-5.39 77 0.22 77 6 77 C5.36425758 67.92052371 3.43573776 59.22700653 1.4375 50.375 C1.1042863 48.87902452 0.77159993 47.38293147 0.43945312 45.88671875 C-0.3676268 42.25643787 -1.18181739 38.62779682 -2 35 C-2.33 35 -2.66 35 -3 35 Z " fill="#FBFBFB" transform="translate(1171,414)"/>
<path d="M0 0 C9.57 0 19.14 0 29 0 C29 0.99 29 1.98 29 3 C26.69 3 24.38 3 22 3 C22.20568604 3.91773193 22.41137207 4.83546387 22.62329102 5.78100586 C27.5598748 27.82437026 32.35941815 49.89243866 37 72 C39.01549008 64.13984866 40.86130645 56.26409285 42.515625 48.3203125 C42.73571228 47.26391571 42.95579956 46.20751892 43.18255615 45.11911011 C43.6411426 42.90947733 44.09817998 40.69952252 44.55371094 38.48925781 C45.02033079 36.23469205 45.49173602 33.98111173 45.96777344 31.72851562 C46.66081554 28.44868675 47.33978858 25.16622435 48.015625 21.8828125 C48.23011292 20.87960968 48.44460083 19.87640686 48.66558838 18.84280396 C49.66108191 13.92366888 50.33397718 9.95909669 49 5 C46.69 4.34 44.38 3.68 42 3 C42 2.01 42 1.02 42 0 C49.59 0 57.18 0 65 0 C65 0.99 65 1.98 65 3 C63.741875 3.28875 62.48375 3.5775 61.1875 3.875 C58.4548309 4.89760988 57.29485232 5.3900938 56.00810528 8.05174828 C55.69153831 9.27479636 55.69153831 9.27479636 55.36857605 10.52255249 C55.01285806 11.8705298 55.01285806 11.8705298 54.64995384 13.24573898 C53.66792051 17.40722853 52.74560715 21.56962245 51.9152832 25.76416016 C51.72952728 26.68245605 51.54377136 27.60075195 51.35238647 28.546875 C50.74738258 31.54339069 50.14902608 34.54119077 49.55078125 37.5390625 C49.12949654 39.63235637 48.707793 41.72556599 48.28569031 43.81869507 C47.18172899 49.29878943 46.08342257 54.78000199 44.98632812 60.26147461 C43.8634686 65.86641508 42.73521189 71.47026868 41.60742188 77.07421875 C39.39969283 88.04842781 37.19794205 99.0238269 35 110 C32.525 110.495 32.525 110.495 30 111 C26.79664938 98.5696399 23.97364682 86.0711062 21.234375 73.53125 C20.79189039 71.51383071 20.34919863 69.49645684 19.90631104 67.47912598 C18.75351845 62.22560762 17.60349958 56.97148605 16.45410156 51.71722412 C15.27579722 46.33324351 14.09480951 40.94985159 12.9140625 35.56640625 C10.60678146 25.04483807 8.30243678 14.52262923 6 4 C3.03 3.505 3.03 3.505 0 3 C0 2.01 0 1.02 0 0 Z " fill="#FBFBFB" transform="translate(316,415)"/>
<path d="M0 0 C9.9 0 19.8 0 30 0 C30 0.99 30 1.98 30 3 C27.69 3 25.38 3 23 3 C23 36.99 23 70.98 23 106 C25.31 106 27.62 106 30 106 C30 107.32 30 108.64 30 110 C20.1 110 10.2 110 0 110 C0 108.68 0 107.36 0 106 C2.31 106 4.62 106 7 106 C7 72.01 7 38.02 7 3 C4.69 3 2.38 3 0 3 C0 2.01 0 1.02 0 0 Z " fill="#FCFCFC" transform="translate(283,415)"/>
<path d="M0 0 C9.9 0 19.8 0 30 0 C30 0.99 30 1.98 30 3 C27.36 3 24.72 3 22 3 C22 36.99 22 70.98 22 106 C24.64 106 27.28 106 30 106 C30 107.32 30 108.64 30 110 C20.1 110 10.2 110 0 110 C0 108.68 0 107.36 0 106 C2.31 106 4.62 106 7 106 C7 72.01 7 38.02 7 3 C4.69 3 2.38 3 0 3 C0 2.01 0 1.02 0 0 Z " fill="#FDFDFD" transform="translate(1261,415)"/>
<path d="M0 0 C0.66 0 1.32 0 2 0 C3.6317293 2.47410219 5.14700164 4.93659659 6.625 7.5 C7.25535156 8.57314453 7.25535156 8.57314453 7.8984375 9.66796875 C8.93888589 11.44146033 9.97028904 13.22025266 11 15 C15.72843614 13.42686828 19.3433843 10.79358765 23.3125 7.875 C23.95767578 7.40707031 24.60285156 6.93914062 25.26757812 6.45703125 C26.84848894 5.3094071 28.42472301 4.15534523 30 3 C30.66 3.33 31.32 3.66 32 4 C30.99066406 5.62808594 30.99066406 5.62808594 29.9609375 7.2890625 C29.09788633 8.73373512 28.23596593 10.17908369 27.375 11.625 C26.70597656 12.69427734 26.70597656 12.69427734 26.0234375 13.78515625 C23.41630391 18.15975798 23.41630391 18.15975798 23.49609375 23.1328125 C25.70240936 27.33913889 28.13289076 31.35640114 30.63671875 35.390625 C31.08660156 36.25171875 31.53648437 37.1128125 32 38 C31.505 38.99 31.505 38.99 31 40 C30.49549316 39.57589844 29.99098633 39.15179688 29.47119141 38.71484375 C27.19332899 36.8048186 24.90928088 34.90234324 22.625 33 C21.8309375 32.33226562 21.036875 31.66453125 20.21875 30.9765625 C19.45820312 30.34492188 18.69765625 29.71328125 17.9140625 29.0625 C17.2123291 28.47597656 16.5105957 27.88945312 15.78759766 27.28515625 C14.09628792 25.80542266 14.09628792 25.80542266 12 26 C10.80291789 27.61626572 10.80291789 27.61626572 9.6875 29.71875 C9.25179687 30.48574219 8.81609375 31.25273437 8.3671875 32.04296875 C7.69042969 33.25919922 7.69042969 33.25919922 7 34.5 C6.11103751 36.0975926 5.21554287 37.69157394 4.3125 39.28125 C3.91675781 39.99345703 3.52101563 40.70566406 3.11328125 41.43945312 C2.74589844 41.95443359 2.37851562 42.46941406 2 43 C1.34 43 0.68 43 0 43 C-1.14501953 41.56298828 -1.14501953 41.56298828 -2.3828125 39.5703125 C-2.82753906 38.85746094 -3.27226563 38.14460938 -3.73046875 37.41015625 C-4.19066406 36.65605469 -4.65085937 35.90195312 -5.125 35.125 C-5.59292969 34.37863281 -6.06085937 33.63226563 -6.54296875 32.86328125 C-10 27.26954264 -10 27.26954264 -10 25 C-16.63505153 29.69576257 -23.00564764 34.50374569 -29 40 C-29.66 39.67 -30.32 39.34 -31 39 C-30.00806641 37.35451172 -30.00806641 37.35451172 -28.99609375 35.67578125 C-28.14246689 34.22180143 -27.28964412 32.76734932 -26.4375 31.3125 C-25.78104492 30.2306543 -25.78104492 30.2306543 -25.11132812 29.12695312 C-22.69317688 25.03580329 -22.69317688 25.03580329 -21.96875 20.4375 C-23.41320393 17.02333617 -25.16547772 13.86886207 -27.0625 10.6875 C-27.43955078 10.04232422 -27.81660156 9.39714844 -28.20507812 8.73242188 C-29.13037493 7.15121848 -30.06432681 5.5750854 -31 4 C-30.34 3.67 -29.68 3.34 -29 3 C-28.53625977 3.33322266 -28.07251953 3.66644531 -27.59472656 4.00976562 C-25.48662261 5.51630668 -23.36856383 7.00820851 -21.25 8.5 C-20.52039063 9.02464844 -19.79078125 9.54929687 -19.0390625 10.08984375 C-18.33007812 10.58613281 -17.62109375 11.08242188 -16.890625 11.59375 C-16.24125977 12.05458984 -15.59189453 12.51542969 -14.92285156 12.99023438 C-12.77174567 14.30995389 -12.77174567 14.30995389 -9 14 C-7.26762705 11.68228602 -5.81574263 9.48768227 -4.375 7 C-2.96832604 4.61876761 -1.52625099 2.3100015 0 0 Z " fill="#FAFAFA" transform="translate(805,293)"/>
<path d="M0 0 C0.66 0.33 1.32 0.66 2 1 C-0.475 6.94 -0.475 6.94 -3 13 C-4.15019009 9.54942972 -3.80497206 8.69840756 -2.625 5.375 C-2.34914062 4.57835937 -2.07328125 3.78171875 -1.7890625 2.9609375 C-1 1 -1 1 0 0 Z " fill="#F9B500" transform="translate(214,204)"/>
</svg>
